<?xml version="1.0" encoding="utf-8" standalone="no"?>
<!DOCTYPE svg PUBLIC "-//W3C//DTD SVG 1.0//EN" "http://www.w3.org/TR/SVG/DTD/svg10.dtd">
<!-- Rendered by FLANGE from stdin -->
<svg
   xmlns:svg="http://www.w3.org/2000/svg"
   xmlns="http://www.w3.org/2000/svg"
   version="1.0"
   viewBox="0 0 600 600"
   width="100%"
   height="100%">
  <g stroke-width="3" stroke="green" transform="matrix(1 0 0 -1 0 600)">
    <line x1="30.000" y1="444.000" x2="36.667" y2="444.000" />
    <line x1="36.667" y1="444.000" x2="40.000" y2="449.774" />
    <line x1="40.000" y1="449.774" x2="43.333" y2="444.000" />
    <line x1="43.333" y1="444.000" x2="50.000" y2="444.000" />
    <line x1="50.000" y1="444.000" x2="53.333" y2="449.774" />
    <line x1="53.333" y1="449.774" x2="50.000" y2="455.547" />
    <line x1="50.000" y1="455.547" x2="56.667" y2="455.547" />
    <line x1="56.667" y1="455.547" x2="60.000" y2="461.321" />
    <line x1="60.000" y1="461.321" x2="63.333" y2="455.547" />
    <line x1="63.333" y1="455.547" x2="70.000" y2="455.547" />
    <line x1="70.000" y1="455.547" x2="66.667" y2="449.774" />
    <line x1="66.667" y1="449.774" x2="70.000" y2="444.000" />
    <line x1="70.000" y1="444.000" x2="76.667" y2="444.000" />
    <line x1="76.667" y1="444.000" x2="80.000" y2="449.774" />
    <line x1="80.000" y1="449.774" x2="83.333" y2="444.000" />
    <line x1="83.333" y1="444.000" x2="90.000" y2="444.000" />
    <line x1="90.000" y1="444.000" x2="93.333" y2="449.774" />
    <line x1="93.333" y1="449.774" x2="90.000" y2="455.547" />
    <line x1="90.000" y1="455.547" x2="96.667" y2="455.547" />
    <line x1="96.667" y1="455.547" x2="100.000" y2="461.321" />
    <line x1="100.000" y1="461.321" x2="96.667" y2="467.094" />
    <line x1="96.667" y1="467.094" x2="90.000" y2="467.094" />
    <line x1="90.000" y1="467.094" x2="93.333" y2="472.868" />
    <line x1="93.333" y1="472.868" x2="90.000" y2="478.641" />
    <line x1="90.000" y1="478.641" x2="96.667" y2="478.641" />
    <line x1="96.667" y1="478.641" x2="100.000" y2="484.415" />
    <line x1="100.000" y1="484.415" x2="103.333" y2="478.641" />
    <line x1="103.333" y1="478.641" x2="110.000" y2="478.641" />
    <line x1="110.000" y1="478.641" x2="113.333" y2="484.415" />
    <line x1="113.333" y1="484.415" x2="110.000" y2="490.188" />
    <line x1="110.000" y1="490.188" x2="116.667" y2="490.188" />
    <line x1="116.667" y1="490.188" x2="120.000" y2="495.962" />
    <line x1="120.000" y1="495.962" x2="123.333" y2="490.188" />
    <line x1="123.333" y1="490.188" x2="130.000" y2="490.188" />
    <line x1="130.000" y1="490.188" x2="126.667" y2="484.415" />
    <line x1="126.667" y1="484.415" x2="130.000" y2="478.641" />
    <line x1="130.000" y1="478.641" x2="136.667" y2="478.641" />
    <line x1="136.667" y1="478.641" x2="140.000" y2="484.415" />
    <line x1="140.000" y1="484.415" x2="143.333" y2="478.641" />
    <line x1="143.333" y1="478.641" x2="150.000" y2="478.641" />
    <line x1="150.000" y1="478.641" x2="146.667" y2="472.868" />
    <line x1="146.667" y1="472.868" x2="150.000" y2="467.094" />
    <line x1="150.000" y1="467.094" x2="143.333" y2="467.094" />
    <line x1="143.333" y1="467.094" x2="140.000" y2="461.321" />
    <line x1="140.000" y1="461.321" x2="143.333" y2="455.547" />
    <line x1="143.333" y1="455.547" x2="150.000" y2="455.547" />
    <line x1="150.000" y1="455.547" x2="146.667" y2="449.774" />
    <line x1="146.667" y1="449.774" x2="150.000" y2="444.000" />
    <line x1="150.000" y1="444.000" x2="156.667" y2="444.000" />
    <line x1="156.667" y1="444.000" x2="160.000" y2="449.774" />
    <line x1="160.000" y1="449.774" x2="163.333" y2="444.000" />
    <line x1="163.333" y1="444.000" x2="170.000" y2="444.000" />
    <line x1="170.000" y1="444.000" x2="173.333" y2="449.774" />
    <line x1="173.333" y1="449.774" x2="170.000" y2="455.547" />
    <line x1="170.000" y1="455.547" x2="176.667" y2="455.547" />
    <line x1="176.667" y1="455.547" x2="180.000" y2="461.321" />
    <line x1="180.000" y1="461.321" x2="183.333" y2="455.547" />
    <line x1="183.333" y1="455.547" x2="190.000" y2="455.547" />
    <line x1="190.000" y1="455.547" x2="186.667" y2="449.774" />
    <line x1="186.667" y1="449.774" x2="190.000" y2="444.000" />
    <line x1="190.000" y1="444.000" x2="196.667" y2="444.000" />
    <line x1="196.667" y1="444.000" x2="200.000" y2="449.774" />
    <line x1="200.000" y1="449.774" x2="203.333" y2="444.000" />
    <line x1="203.333" y1="444.000" x2="210.000" y2="444.000" />
    <line x1="210.000" y1="444.000" x2="213.333" y2="449.774" />
    <line x1="213.333" y1="449.774" x2="210.000" y2="455.547" />
    <line x1="210.000" y1="455.547" x2="216.667" y2="455.547" />
    <line x1="216.667" y1="455.547" x2="220.000" y2="461.321" />
    <line x1="220.000" y1="461.321" x2="216.667" y2="467.094" />
    <line x1="216.667" y1="467.094" x2="210.000" y2="467.094" />
    <line x1="210.000" y1="467.094" x2="213.333" y2="472.868" />
    <line x1="213.333" y1="472.868" x2="210.000" y2="478.641" />
    <line x1="210.000" y1="478.641" x2="216.667" y2="478.641" />
    <line x1="216.667" y1="478.641" x2="220.000" y2="484.415" />
    <line x1="220.000" y1="484.415" x2="223.333" y2="478.641" />
    <line x1="223.333" y1="478.641" x2="230.000" y2="478.641" />
    <line x1="230.000" y1="478.641" x2="233.333" y2="484.415" />
    <line x1="233.333" y1="484.415" x2="230.000" y2="490.188" />
    <line x1="230.000" y1="490.188" x2="236.667" y2="490.188" />
    <line x1="236.667" y1="490.188" x2="240.000" y2="495.962" />
    <line x1="240.000" y1="495.962" x2="236.667" y2="501.735" />
    <line x1="236.667" y1="501.735" x2="230.000" y2="501.735" />
    <line x1="230.000" y1="501.735" x2="233.333" y2="507.509" />
    <line x1="233.333" y1="507.509" x2="230.000" y2="513.282" />
    <line x1="230.000" y1="513.282" x2="223.333" y2="513.282" />
    <line x1="223.333" y1="513.282" x2="220.000" y2="507.509" />
    <line x1="220.000" y1="507.509" x2="216.667" y2="513.282" />
    <line x1="216.667" y1="513.282" x2="210.000" y2="513.282" />
    <line x1="210.000" y1="513.282" x2="213.333" y2="519.056" />
    <line x1="213.333" y1="519.056" x2="210.000" y2="524.829" />
    <line x1="210.000" y1="524.829" x2="216.667" y2="524.829" />
    <line x1="216.667" y1="524.829" x2="220.000" y2="530.603" />
    <line x1="220.000" y1="530.603" x2="216.667" y2="536.376" />
    <line x1="216.667" y1="536.376" x2="210.000" y2="536.376" />
    <line x1="210.000" y1="536.376" x2="213.333" y2="542.150" />
    <line x1="213.333" y1="542.150" x2="210.000" y2="547.923" />
    <line x1="210.000" y1="547.923" x2="216.667" y2="547.923" />
    <line x1="216.667" y1="547.923" x2="220.000" y2="553.697" />
    <line x1="220.000" y1="553.697" x2="223.333" y2="547.923" />
    <line x1="223.333" y1="547.923" x2="230.000" y2="547.923" />
    <line x1="230.000" y1="547.923" x2="233.333" y2="553.697" />
    <line x1="233.333" y1="553.697" x2="230.000" y2="559.470" />
    <line x1="230.000" y1="559.470" x2="236.667" y2="559.470" />
    <line x1="236.667" y1="559.470" x2="240.000" y2="565.244" />
    <line x1="240.000" y1="565.244" x2="243.333" y2="559.470" />
    <line x1="243.333" y1="559.470" x2="250.000" y2="559.470" />
    <line x1="250.000" y1="559.470" x2="246.667" y2="553.697" />
    <line x1="246.667" y1="553.697" x2="250.000" y2="547.923" />
    <line x1="250.000" y1="547.923" x2="256.667" y2="547.923" />
    <line x1="256.667" y1="547.923" x2="260.000" y2="553.697" />
    <line x1="260.000" y1="553.697" x2="263.333" y2="547.923" />
    <line x1="263.333" y1="547.923" x2="270.000" y2="547.923" />
    <line x1="270.000" y1="547.923" x2="273.333" y2="553.697" />
    <line x1="273.333" y1="553.697" x2="270.000" y2="559.470" />
    <line x1="270.000" y1="559.470" x2="276.667" y2="559.470" />
    <line x1="276.667" y1="559.470" x2="280.000" y2="565.244" />
    <line x1="280.000" y1="565.244" x2="276.667" y2="571.017" />
    <line x1="276.667" y1="571.017" x2="270.000" y2="571.017" />
    <line x1="270.000" y1="571.017" x2="273.333" y2="576.791" />
    <line x1="273.333" y1="576.791" x2="270.000" y2="582.564" />
    <line x1="270.000" y1="582.564" x2="276.667" y2="582.564" />
    <line x1="276.667" y1="582.564" x2="280.000" y2="588.338" />
    <line x1="280.000" y1="588.338" x2="283.333" y2="582.564" />
    <line x1="283.333" y1="582.564" x2="290.000" y2="582.564" />
    <line x1="290.000" y1="582.564" x2="293.333" y2="588.338" />
    <line x1="293.333" y1="588.338" x2="290.000" y2="594.111" />
    <line x1="290.000" y1="594.111" x2="296.667" y2="594.111" />
    <line x1="296.667" y1="594.111" x2="300.000" y2="599.885" />
    <line x1="300.000" y1="599.885" x2="303.333" y2="594.111" />
    <line x1="303.333" y1="594.111" x2="310.000" y2="594.111" />
    <line x1="310.000" y1="594.111" x2="306.667" y2="588.338" />
    <line x1="306.667" y1="588.338" x2="310.000" y2="582.564" />
    <line x1="310.000" y1="582.564" x2="316.667" y2="582.564" />
    <line x1="316.667" y1="582.564" x2="320.000" y2="588.338" />
    <line x1="320.000" y1="588.338" x2="323.333" y2="582.564" />
    <line x1="323.333" y1="582.564" x2="330.000" y2="582.564" />
    <line x1="330.000" y1="582.564" x2="326.667" y2="576.791" />
    <line x1="326.667" y1="576.791" x2="330.000" y2="571.017" />
    <line x1="330.000" y1="571.017" x2="323.333" y2="571.017" />
    <line x1="323.333" y1="571.017" x2="320.000" y2="565.244" />
    <line x1="320.000" y1="565.244" x2="323.333" y2="559.470" />
    <line x1="323.333" y1="559.470" x2="330.000" y2="559.470" />
    <line x1="330.000" y1="559.470" x2="326.667" y2="553.697" />
    <line x1="326.667" y1="553.697" x2="330.000" y2="547.923" />
    <line x1="330.000" y1="547.923" x2="336.667" y2="547.923" />
    <line x1="336.667" y1="547.923" x2="340.000" y2="553.697" />
    <line x1="340.000" y1="553.697" x2="343.333" y2="547.923" />
    <line x1="343.333" y1="547.923" x2="350.000" y2="547.923" />
    <line x1="350.000" y1="547.923" x2="353.333" y2="553.697" />
    <line x1="353.333" y1="553.697" x2="350.000" y2="559.470" />
    <line x1="350.000" y1="559.470" x2="356.667" y2="559.470" />
    <line x1="356.667" y1="559.470" x2="360.000" y2="565.244" />
    <line x1="360.000" y1="565.244" x2="363.333" y2="559.470" />
    <line x1="363.333" y1="559.470" x2="370.000" y2="559.470" />
    <line x1="370.000" y1="559.470" x2="366.667" y2="553.697" />
    <line x1="366.667" y1="553.697" x2="370.000" y2="547.923" />
    <line x1="370.000" y1="547.923" x2="376.667" y2="547.923" />
    <line x1="376.667" y1="547.923" x2="380.000" y2="553.697" />
    <line x1="380.000" y1="553.697" x2="383.333" y2="547.923" />
    <line x1="383.333" y1="547.923" x2="390.000" y2="547.923" />
    <line x1="390.000" y1="547.923" x2="386.667" y2="542.150" />
    <line x1="386.667" y1="542.150" x2="390.000" y2="536.376" />
    <line x1="390.000" y1="536.376" x2="383.333" y2="536.376" />
    <line x1="383.333" y1="536.376" x2="380.000" y2="530.603" />
    <line x1="380.000" y1="530.603" x2="383.333" y2="524.829" />
    <line x1="383.333" y1="524.829" x2="390.000" y2="524.829" />
    <line x1="390.000" y1="524.829" x2="386.667" y2="519.056" />
    <line x1="386.667" y1="519.056" x2="390.000" y2="513.282" />
    <line x1="390.000" y1="513.282" x2="383.333" y2="513.282" />
    <line x1="383.333" y1="513.282" x2="380.000" y2="507.509" />
    <line x1="380.000" y1="507.509" x2="376.667" y2="513.282" />
    <line x1="376.667" y1="513.282" x2="370.000" y2="513.282" />
    <line x1="370.000" y1="513.282" x2="366.667" y2="507.509" />
    <line x1="366.667" y1="507.509" x2="370.000" y2="501.735" />
    <line x1="370.000" y1="501.735" x2="363.333" y2="501.735" />
    <line x1="363.333" y1="501.735" x2="360.000" y2="495.962" />
    <line x1="360.000" y1="495.962" x2="363.333" y2="490.188" />
    <line x1="363.333" y1="490.188" x2="370.000" y2="490.188" />
    <line x1="370.000" y1="490.188" x2="366.667" y2="484.415" />
    <line x1="366.667" y1="484.415" x2="370.000" y2="478.641" />
    <line x1="370.000" y1="478.641" x2="376.667" y2="478.641" />
    <line x1="376.667" y1="478.641" x2="380.000" y2="484.415" />
    <line x1="380.000" y1="484.415" x2="383.333" y2="478.641" />
    <line x1="383.333" y1="478.641" x2="390.000" y2="478.641" />
    <line x1="390.000" y1="478.641" x2="386.667" y2="472.868" />
    <line x1="386.667" y1="472.868" x2="390.000" y2="467.094" />
    <line x1="390.000" y1="467.094" x2="383.333" y2="467.094" />
    <line x1="383.333" y1="467.094" x2="380.000" y2="461.321" />
    <line x1="380.000" y1="461.321" x2="383.333" y2="455.547" />
    <line x1="383.333" y1="455.547" x2="390.000" y2="455.547" />
    <line x1="390.000" y1="455.547" x2="386.667" y2="449.774" />
    <line x1="386.667" y1="449.774" x2="390.000" y2="444.000" />
    <line x1="390.000" y1="444.000" x2="396.667" y2="444.000" />
    <line x1="396.667" y1="444.000" x2="400.000" y2="449.774" />
    <line x1="400.000" y1="449.774" x2="403.333" y2="444.000" />
    <line x1="403.333" y1="444.000" x2="410.000" y2="444.000" />
    <line x1="410.000" y1="444.000" x2="413.333" y2="449.774" />
    <line x1="413.333" y1="449.774" x2="410.000" y2="455.547" />
    <line x1="410.000" y1="455.547" x2="416.667" y2="455.547" />
    <line x1="416.667" y1="455.547" x2="420.000" y2="461.321" />
    <line x1="420.000" y1="461.321" x2="423.333" y2="455.547" />
    <line x1="423.333" y1="455.547" x2="430.000" y2="455.547" />
    <line x1="430.000" y1="455.547" x2="426.667" y2="449.774" />
    <line x1="426.667" y1="449.774" x2="430.000" y2="444.000" />
    <line x1="430.000" y1="444.000" x2="436.667" y2="444.000" />
    <line x1="436.667" y1="444.000" x2="440.000" y2="449.774" />
    <line x1="440.000" y1="449.774" x2="443.333" y2="444.000" />
    <line x1="443.333" y1="444.000" x2="450.000" y2="444.000" />
    <line x1="450.000" y1="444.000" x2="453.333" y2="449.774" />
    <line x1="453.333" y1="449.774" x2="450.000" y2="455.547" />
    <line x1="450.000" y1="455.547" x2="456.667" y2="455.547" />
    <line x1="456.667" y1="455.547" x2="460.000" y2="461.321" />
    <line x1="460.000" y1="461.321" x2="456.667" y2="467.094" />
    <line x1="456.667" y1="467.094" x2="450.000" y2="467.094" />
    <line x1="450.000" y1="467.094" x2="453.333" y2="472.868" />
    <line x1="453.333" y1="472.868" x2="450.000" y2="478.641" />
    <line x1="450.000" y1="478.641" x2="456.667" y2="478.641" />
    <line x1="456.667" y1="478.641" x2="460.000" y2="484.415" />
    <line x1="460.000" y1="484.415" x2="463.333" y2="478.641" />
    <line x1="463.333" y1="478.641" x2="470.000" y2="478.641" />
    <line x1="470.000" y1="478.641" x2="473.333" y2="484.415" />
    <line x1="473.333" y1="484.415" x2="470.000" y2="490.188" />
    <line x1="470.000" y1="490.188" x2="476.667" y2="490.188" />
    <line x1="476.667" y1="490.188" x2="480.000" y2="495.962" />
    <line x1="480.000" y1="495.962" x2="483.333" y2="490.188" />
    <line x1="483.333" y1="490.188" x2="490.000" y2="490.188" />
    <line x1="490.000" y1="490.188" x2="486.667" y2="484.415" />
    <line x1="486.667" y1="484.415" x2="490.000" y2="478.641" />
    <line x1="490.000" y1="478.641" x2="496.667" y2="478.641" />
    <line x1="496.667" y1="478.641" x2="500.000" y2="484.415" />
    <line x1="500.000" y1="484.415" x2="503.333" y2="478.641" />
    <line x1="503.333" y1="478.641" x2="510.000" y2="478.641" />
    <line x1="510.000" y1="478.641" x2="506.667" y2="472.868" />
    <line x1="506.667" y1="472.868" x2="510.000" y2="467.094" />
    <line x1="510.000" y1="467.094" x2="503.333" y2="467.094" />
    <line x1="503.333" y1="467.094" x2="500.000" y2="461.321" />
    <line x1="500.000" y1="461.321" x2="503.333" y2="455.547" />
    <line x1="503.333" y1="455.547" x2="510.000" y2="455.547" />
    <line x1="510.000" y1="455.547" x2="506.667" y2="449.774" />
    <line x1="506.667" y1="449.774" x2="510.000" y2="444.000" />
    <line x1="510.000" y1="444.000" x2="516.667" y2="444.000" />
    <line x1="516.667" y1="444.000" x2="520.000" y2="449.774" />
    <line x1="520.000" y1="449.774" x2="523.333" y2="444.000" />
    <line x1="523.333" y1="444.000" x2="530.000" y2="444.000" />
    <line x1="530.000" y1="444.000" x2="533.333" y2="449.774" />
    <line x1="533.333" y1="449.774" x2="530.000" y2="455.547" />
    <line x1="530.000" y1="455.547" x2="536.667" y2="455.547" />
    <line x1="536.667" y1="455.547" x2="540.000" y2="461.321" />
    <line x1="540.000" y1="461.321" x2="543.333" y2="455.547" />
    <line x1="543.333" y1="455.547" x2="550.000" y2="455.547" />
    <line x1="550.000" y1="455.547" x2="546.667" y2="449.774" />
    <line x1="546.667" y1="449.774" x2="550.000" y2="444.000" />
    <line x1="550.000" y1="444.000" x2="556.667" y2="444.000" />
    <line x1="556.667" y1="444.000" x2="560.000" y2="449.774" />
    <line x1="560.000" y1="449.774" x2="563.333" y2="444.000" />
    <line x1="563.333" y1="444.000" x2="570.000" y2="444.000" />
    <line x1="300.000" y1="0.000" x2="296.667" y2="5.481" />
    <line x1="296.667" y1="5.481" x2="290.253" y2="5.335" />
    <line x1="290.253" y1="5.335" x2="293.333" y2="10.963" />
    <line x1="293.333" y1="10.963" x2="290.000" y2="16.444" />
    <line x1="290.000" y1="16.444" x2="283.586" y2="16.298" />
    <line x1="283.586" y1="16.298" x2="280.506" y2="10.671" />
    <line x1="280.506" y1="10.671" x2="277.172" y2="16.152" />
    <line x1="277.172" y1="16.152" x2="270.759" y2="16.006" />
    <line x1="270.759" y1="16.006" x2="273.839" y2="21.634" />
    <line x1="273.839" y1="21.634" x2="270.506" y2="27.115" />
    <line x1="270.506" y1="27.115" x2="276.920" y2="27.261" />
    <line x1="276.920" y1="27.261" x2="280.000" y2="32.889" />
    <line x1="280.000" y1="32.889" x2="276.667" y2="38.370" />
    <line x1="276.667" y1="38.370" x2="270.253" y2="38.224" />
    <line x1="270.253" y1="38.224" x2="273.333" y2="43.852" />
    <line x1="273.333" y1="43.852" x2="270.000" y2="49.333" />
    <line x1="270.000" y1="49.333" x2="263.586" y2="49.187" />
    <line x1="263.586" y1="49.187" x2="260.506" y2="43.560" />
    <line x1="260.506" y1="43.560" x2="257.172" y2="49.041" />
    <line x1="257.172" y1="49.041" x2="250.759" y2="48.895" />
    <line x1="250.759" y1="48.895" x2="247.678" y2="43.268" />
    <line x1="247.678" y1="43.268" x2="251.012" y2="37.786" />
    <line x1="251.012" y1="37.786" x2="244.598" y2="37.640" />
    <line x1="244.598" y1="37.640" x2="241.517" y2="32.013" />
    <line x1="241.517" y1="32.013" x2="238.184" y2="37.494" />
    <line x1="238.184" y1="37.494" x2="231.770" y2="37.348" />
    <line x1="231.770" y1="37.348" x2="234.851" y2="42.976" />
    <line x1="234.851" y1="42.976" x2="231.517" y2="48.457" />
    <line x1="231.517" y1="48.457" x2="225.104" y2="48.311" />
    <line x1="225.104" y1="48.311" x2="222.023" y2="42.684" />
    <line x1="222.023" y1="42.684" x2="218.690" y2="48.165" />
    <line x1="218.690" y1="48.165" x2="212.276" y2="48.019" />
    <line x1="212.276" y1="48.019" x2="215.357" y2="53.647" />
    <line x1="215.357" y1="53.647" x2="212.023" y2="59.128" />
    <line x1="212.023" y1="59.128" x2="218.437" y2="59.274" />
    <line x1="218.437" y1="59.274" x2="221.517" y2="64.902" />
    <line x1="221.517" y1="64.902" x2="218.184" y2="70.383" />
    <line x1="218.184" y1="70.383" x2="211.770" y2="70.237" />
    <line x1="211.770" y1="70.237" x2="214.851" y2="75.865" />
    <line x1="214.851" y1="75.865" x2="211.517" y2="81.346" />
    <line x1="211.517" y1="81.346" x2="217.931" y2="81.492" />
    <line x1="217.931" y1="81.492" x2="221.012" y2="87.120" />
    <line x1="221.012" y1="87.120" x2="224.345" y2="81.638" />
    <line x1="224.345" y1="81.638" x2="230.759" y2="81.784" />
    <line x1="230.759" y1="81.784" x2="233.839" y2="87.412" />
    <line x1="233.839" y1="87.412" x2="230.506" y2="92.893" />
    <line x1="230.506" y1="92.893" x2="236.920" y2="93.039" />
    <line x1="236.920" y1="93.039" x2="240.000" y2="98.667" />
    <line x1="240.000" y1="98.667" x2="236.667" y2="104.148" />
    <line x1="236.667" y1="104.148" x2="230.253" y2="104.002" />
    <line x1="230.253" y1="104.002" x2="233.333" y2="109.630" />
    <line x1="233.333" y1="109.630" x2="230.000" y2="115.111" />
    <line x1="230.000" y1="115.111" x2="223.586" y2="114.965" />
    <line x1="223.586" y1="114.965" x2="220.506" y2="109.338" />
    <line x1="220.506" y1="109.338" x2="217.172" y2="114.819" />
    <line x1="217.172" y1="114.819" x2="210.759" y2="114.673" />
    <line x1="210.759" y1="114.673" x2="213.839" y2="120.301" />
    <line x1="213.839" y1="120.301" x2="210.506" y2="125.782" />
    <line x1="210.506" y1="125.782" x2="216.920" y2="125.928" />
    <line x1="216.920" y1="125.928" x2="220.000" y2="131.556" />
    <line x1="220.000" y1="131.556" x2="216.667" y2="137.037" />
    <line x1="216.667" y1="137.037" x2="210.253" y2="136.891" />
    <line x1="210.253" y1="136.891" x2="213.333" y2="142.519" />
    <line x1="213.333" y1="142.519" x2="210.000" y2="148.000" />
    <line x1="210.000" y1="148.000" x2="203.586" y2="147.854" />
    <line x1="203.586" y1="147.854" x2="200.506" y2="142.226" />
    <line x1="200.506" y1="142.226" x2="197.172" y2="147.708" />
    <line x1="197.172" y1="147.708" x2="190.759" y2="147.562" />
    <line x1="190.759" y1="147.562" x2="187.678" y2="141.934" />
    <line x1="187.678" y1="141.934" x2="191.012" y2="136.453" />
    <line x1="191.012" y1="136.453" x2="184.598" y2="136.307" />
    <line x1="184.598" y1="136.307" x2="181.517" y2="130.679" />
    <line x1="181.517" y1="130.679" x2="178.184" y2="136.161" />
    <line x1="178.184" y1="136.161" x2="171.770" y2="136.015" />
    <line x1="171.770" y1="136.015" x2="174.851" y2="141.642" />
    <line x1="174.851" y1="141.642" x2="171.517" y2="147.124" />
    <line x1="171.517" y1="147.124" x2="165.104" y2="146.978" />
    <line x1="165.104" y1="146.978" x2="162.023" y2="141.350" />
    <line x1="162.023" y1="141.350" x2="158.690" y2="146.832" />
    <line x1="158.690" y1="146.832" x2="152.276" y2="146.686" />
    <line x1="152.276" y1="146.686" x2="149.196" y2="141.058" />
    <line x1="149.196" y1="141.058" x2="152.529" y2="135.577" />
    <line x1="152.529" y1="135.577" x2="146.115" y2="135.431" />
    <line x1="146.115" y1="135.431" x2="143.035" y2="129.803" />
    <line x1="143.035" y1="129.803" x2="146.368" y2="124.322" />
    <line x1="146.368" y1="124.322" x2="152.782" y2="124.468" />
    <line x1="152.782" y1="124.468" x2="149.701" y2="118.840" />
    <line x1="149.701" y1="118.840" x2="153.035" y2="113.359" />
    <line x1="153.035" y1="113.359" x2="146.621" y2="113.213" />
    <line x1="146.621" y1="113.213" x2="143.541" y2="107.585" />
    <line x1="143.541" y1="107.585" x2="140.207" y2="113.067" />
    <line x1="140.207" y1="113.067" x2="133.793" y2="112.921" />
    <line x1="133.793" y1="112.921" x2="130.713" y2="107.293" />
    <line x1="130.713" y1="107.293" x2="134.046" y2="101.812" />
    <line x1="134.046" y1="101.812" x2="127.633" y2="101.666" />
    <line x1="127.633" y1="101.666" x2="124.552" y2="96.038" />
    <line x1="124.552" y1="96.038" x2="121.219" y2="101.520" />
    <line x1="121.219" y1="101.520" x2="114.805" y2="101.374" />
    <line x1="114.805" y1="101.374" x2="117.885" y2="107.001" />
    <line x1="117.885" y1="107.001" x2="114.552" y2="112.483" />
    <line x1="114.552" y1="112.483" x2="108.138" y2="112.337" />
    <line x1="108.138" y1="112.337" x2="105.058" y2="106.709" />
    <line x1="105.058" y1="106.709" x2="101.725" y2="112.191" />
    <line x1="101.725" y1="112.191" x2="95.311" y2="112.045" />
    <line x1="95.311" y1="112.045" x2="98.391" y2="117.672" />
    <line x1="98.391" y1="117.672" x2="95.058" y2="123.154" />
    <line x1="95.058" y1="123.154" x2="101.472" y2="123.300" />
    <line x1="101.472" y1="123.300" x2="104.552" y2="128.927" />
    <line x1="104.552" y1="128.927" x2="101.219" y2="134.409" />
    <line x1="101.219" y1="134.409" x2="94.805" y2="134.263" />
    <line x1="94.805" y1="134.263" x2="97.885" y2="139.890" />
    <line x1="97.885" y1="139.890" x2="94.552" y2="145.372" />
    <line x1="94.552" y1="145.372" x2="88.138" y2="145.226" />
    <line x1="88.138" y1="145.226" x2="85.058" y2="139.598" />
    <line x1="85.058" y1="139.598" x2="81.725" y2="145.080" />
    <line x1="81.725" y1="145.080" x2="75.311" y2="144.934" />
    <line x1="75.311" y1="144.934" x2="72.230" y2="139.306" />
    <line x1="72.230" y1="139.306" x2="75.564" y2="133.825" />
    <line x1="75.564" y1="133.825" x2="69.150" y2="133.679" />
    <line x1="69.150" y1="133.679" x2="66.070" y2="128.051" />
    <line x1="66.070" y1="128.051" x2="62.736" y2="133.533" />
    <line x1="62.736" y1="133.533" x2="56.322" y2="133.387" />
    <line x1="56.322" y1="133.387" x2="59.403" y2="139.014" />
    <line x1="59.403" y1="139.014" x2="56.070" y2="144.496" />
    <line x1="56.070" y1="144.496" x2="49.656" y2="144.350" />
    <line x1="49.656" y1="144.350" x2="46.575" y2="138.722" />
    <line x1="46.575" y1="138.722" x2="43.242" y2="144.204" />
    <line x1="43.242" y1="144.204" x2="36.828" y2="144.058" />
    <line x1="36.828" y1="144.058" x2="39.909" y2="149.685" />
    <line x1="39.909" y1="149.685" x2="36.575" y2="155.167" />
    <line x1="36.575" y1="155.167" x2="42.989" y2="155.313" />
    <line x1="42.989" y1="155.313" x2="46.070" y2="160.940" />
    <line x1="46.070" y1="160.940" x2="42.736" y2="166.422" />
    <line x1="42.736" y1="166.422" x2="36.322" y2="166.276" />
    <line x1="36.322" y1="166.276" x2="39.403" y2="171.903" />
    <line x1="39.403" y1="171.903" x2="36.070" y2="177.385" />
    <line x1="36.070" y1="177.385" x2="42.483" y2="177.531" />
    <line x1="42.483" y1="177.531" x2="45.564" y2="183.158" />
    <line x1="45.564" y1="183.158" x2="48.897" y2="177.677" />
    <line x1="48.897" y1="177.677" x2="55.311" y2="177.823" />
    <line x1="55.311" y1="177.823" x2="58.391" y2="183.450" />
    <line x1="58.391" y1="183.450" x2="55.058" y2="188.932" />
    <line x1="55.058" y1="188.932" x2="61.472" y2="189.078" />
    <line x1="61.472" y1="189.078" x2="64.552" y2="194.705" />
    <line x1="64.552" y1="194.705" x2="61.219" y2="200.187" />
    <line x1="61.219" y1="200.187" x2="54.805" y2="200.041" />
    <line x1="54.805" y1="200.041" x2="57.885" y2="205.668" />
    <line x1="57.885" y1="205.668" x2="54.552" y2="211.150" />
    <line x1="54.552" y1="211.150" x2="48.138" y2="211.004" />
    <line x1="48.138" y1="211.004" x2="45.058" y2="205.376" />
    <line x1="45.058" y1="205.376" x2="41.725" y2="210.858" />
    <line x1="41.725" y1="210.858" x2="35.311" y2="210.712" />
    <line x1="35.311" y1="210.712" x2="38.391" y2="216.339" />
    <line x1="38.391" y1="216.339" x2="35.058" y2="221.821" />
    <line x1="35.058" y1="221.821" x2="41.472" y2="221.967" />
    <line x1="41.472" y1="221.967" x2="44.552" y2="227.594" />
    <line x1="44.552" y1="227.594" x2="41.219" y2="233.076" />
    <line x1="41.219" y1="233.076" x2="34.805" y2="232.930" />
    <line x1="34.805" y1="232.930" x2="37.885" y2="238.557" />
    <line x1="37.885" y1="238.557" x2="34.552" y2="244.038" />
    <line x1="34.552" y1="244.038" x2="40.966" y2="244.184" />
    <line x1="40.966" y1="244.184" x2="44.046" y2="249.812" />
    <line x1="44.046" y1="249.812" x2="47.380" y2="244.330" />
    <line x1="47.380" y1="244.330" x2="53.793" y2="244.477" />
    <line x1="53.793" y1="244.477" x2="56.874" y2="250.104" />
    <line x1="56.874" y1="250.104" x2="53.541" y2="255.585" />
    <line x1="53.541" y1="255.585" x2="59.954" y2="255.731" />
    <line x1="59.954" y1="255.731" x2="63.035" y2="261.359" />
    <line x1="63.035" y1="261.359" x2="66.368" y2="255.878" />
    <line x1="66.368" y1="255.878" x2="72.782" y2="256.024" />
    <line x1="72.782" y1="256.024" x2="69.701" y2="250.396" />
    <line x1="69.701" y1="250.396" x2="73.035" y2="244.915" />
    <line x1="73.035" y1="244.915" x2="79.449" y2="245.061" />
    <line x1="79.449" y1="245.061" x2="82.529" y2="250.688" />
    <line x1="82.529" y1="250.688" x2="85.862" y2="245.207" />
    <line x1="85.862" y1="245.207" x2="92.276" y2="245.353" />
    <line x1="92.276" y1="245.353" x2="95.357" y2="250.980" />
    <line x1="95.357" y1="250.980" x2="92.023" y2="256.462" />
    <line x1="92.023" y1="256.462" x2="98.437" y2="256.608" />
    <line x1="98.437" y1="256.608" x2="101.517" y2="262.235" />
    <line x1="101.517" y1="262.235" x2="98.184" y2="267.717" />
    <line x1="98.184" y1="267.717" x2="91.770" y2="267.571" />
    <line x1="91.770" y1="267.571" x2="94.851" y2="273.198" />
    <line x1="94.851" y1="273.198" x2="91.517" y2="278.679" />
    <line x1="91.517" y1="278.679" x2="97.931" y2="278.826" />
    <line x1="97.931" y1="278.826" x2="101.012" y2="284.453" />
    <line x1="101.012" y1="284.453" x2="104.345" y2="278.972" />
    <line x1="104.345" y1="278.972" x2="110.759" y2="279.118" />
    <line x1="110.759" y1="279.118" x2="113.839" y2="284.745" />
    <line x1="113.839" y1="284.745" x2="110.506" y2="290.226" />
    <line x1="110.506" y1="290.226" x2="116.920" y2="290.373" />
    <line x1="116.920" y1="290.373" x2="120.000" y2="296.000" />
    <line x1="120.000" y1="296.000" x2="116.667" y2="301.481" />
    <line x1="116.667" y1="301.481" x2="110.253" y2="301.335" />
    <line x1="110.253" y1="301.335" x2="113.333" y2="306.963" />
    <line x1="113.333" y1="306.963" x2="110.000" y2="312.444" />
    <line x1="110.000" y1="312.444" x2="103.586" y2="312.298" />
    <line x1="103.586" y1="312.298" x2="100.506" y2="306.671" />
    <line x1="100.506" y1="306.671" x2="97.172" y2="312.152" />
    <line x1="97.172" y1="312.152" x2="90.759" y2="312.006" />
    <line x1="90.759" y1="312.006" x2="93.839" y2="317.634" />
    <line x1="93.839" y1="317.634" x2="90.506" y2="323.115" />
    <line x1="90.506" y1="323.115" x2="96.920" y2="323.261" />
    <line x1="96.920" y1="323.261" x2="100.000" y2="328.889" />
    <line x1="100.000" y1="328.889" x2="96.667" y2="334.370" />
    <line x1="96.667" y1="334.370" x2="90.253" y2="334.224" />
    <line x1="90.253" y1="334.224" x2="93.333" y2="339.852" />
    <line x1="93.333" y1="339.852" x2="90.000" y2="345.333" />
    <line x1="90.000" y1="345.333" x2="83.586" y2="345.187" />
    <line x1="83.586" y1="345.187" x2="80.506" y2="339.560" />
    <line x1="80.506" y1="339.560" x2="77.172" y2="345.041" />
    <line x1="77.172" y1="345.041" x2="70.759" y2="344.895" />
    <line x1="70.759" y1="344.895" x2="67.678" y2="339.268" />
    <line x1="67.678" y1="339.268" x2="71.012" y2="333.786" />
    <line x1="71.012" y1="333.786" x2="64.598" y2="333.640" />
    <line x1="64.598" y1="333.640" x2="61.517" y2="328.013" />
    <line x1="61.517" y1="328.013" x2="58.184" y2="333.494" />
    <line x1="58.184" y1="333.494" x2="51.770" y2="333.348" />
    <line x1="51.770" y1="333.348" x2="54.851" y2="338.976" />
    <line x1="54.851" y1="338.976" x2="51.517" y2="344.457" />
    <line x1="51.517" y1="344.457" x2="45.104" y2="344.311" />
    <line x1="45.104" y1="344.311" x2="42.023" y2="338.684" />
    <line x1="42.023" y1="338.684" x2="38.690" y2="344.165" />
    <line x1="38.690" y1="344.165" x2="32.276" y2="344.019" />
    <line x1="32.276" y1="344.019" x2="35.357" y2="349.647" />
    <line x1="35.357" y1="349.647" x2="32.023" y2="355.128" />
    <line x1="32.023" y1="355.128" x2="38.437" y2="355.274" />
    <line x1="38.437" y1="355.274" x2="41.517" y2="360.902" />
    <line x1="41.517" y1="360.902" x2="38.184" y2="366.383" />
    <line x1="38.184" y1="366.383" x2="31.770" y2="366.237" />
    <line x1="31.770" y1="366.237" x2="34.851" y2="371.865" />
    <line x1="34.851" y1="371.865" x2="31.517" y2="377.346" />
    <line x1="31.517" y1="377.346" x2="37.931" y2="377.492" />
    <line x1="37.931" y1="377.492" x2="41.012" y2="383.120" />
    <line x1="41.012" y1="383.120" x2="44.345" y2="377.638" />
    <line x1="44.345" y1="377.638" x2="50.759" y2="377.784" />
    <line x1="50.759" y1="377.784" x2="53.839" y2="383.412" />
    <line x1="53.839" y1="383.412" x2="50.506" y2="388.893" />
    <line x1="50.506" y1="388.893" x2="56.920" y2="389.039" />
    <line x1="56.920" y1="389.039" x2="60.000" y2="394.667" />
    <line x1="60.000" y1="394.667" x2="56.667" y2="400.148" />
    <line x1="56.667" y1="400.148" x2="50.253" y2="400.002" />
    <line x1="50.253" y1="400.002" x2="53.333" y2="405.630" />
    <line x1="53.333" y1="405.630" x2="50.000" y2="411.111" />
    <line x1="50.000" y1="411.111" x2="43.586" y2="410.965" />
    <line x1="43.586" y1="410.965" x2="40.506" y2="405.338" />
    <line x1="40.506" y1="405.338" x2="37.172" y2="410.819" />
    <line x1="37.172" y1="410.819" x2="30.759" y2="410.673" />
    <line x1="30.759" y1="410.673" x2="33.839" y2="416.301" />
    <line x1="33.839" y1="416.301" x2="30.506" y2="421.782" />
    <line x1="30.506" y1="421.782" x2="36.920" y2="421.928" />
    <line x1="36.920" y1="421.928" x2="40.000" y2="427.556" />
    <line x1="40.000" y1="427.556" x2="36.667" y2="433.037" />
    <line x1="36.667" y1="433.037" x2="30.253" y2="432.891" />
    <line x1="30.253" y1="432.891" x2="33.333" y2="438.519" />
    <line x1="33.333" y1="438.519" x2="30.000" y2="444.000" />
    <line x1="570.000" y1="444.000" x2="566.667" y2="438.519" />
    <line x1="566.667" y1="438.519" x2="569.747" y2="432.891" />
    <line x1="569.747" y1="432.891" x2="563.333" y2="433.037" />
    <line x1="563.333" y1="433.037" x2="560.000" y2="427.556" />
    <line x1="560.000" y1="427.556" x2="563.080" y2="421.928" />
    <line x1="563.080" y1="421.928" x2="569.494" y2="421.782" />
    <line x1="569.494" y1="421.782" x2="566.161" y2="416.301" />
    <line x1="566.161" y1="416.301" x2="569.241" y2="410.673" />
    <line x1="569.241" y1="410.673" x2="562.828" y2="410.819" />
    <line x1="562.828" y1="410.819" x2="559.494" y2="405.338" />
    <line x1="559.494" y1="405.338" x2="556.414" y2="410.965" />
    <line x1="556.414" y1="410.965" x2="550.000" y2="411.111" />
    <line x1="550.000" y1="411.111" x2="546.667" y2="405.630" />
    <line x1="546.667" y1="405.630" x2="549.747" y2="400.002" />
    <line x1="549.747" y1="400.002" x2="543.333" y2="400.148" />
    <line x1="543.333" y1="400.148" x2="540.000" y2="394.667" />
    <line x1="540.000" y1="394.667" x2="543.080" y2="389.039" />
    <line x1="543.080" y1="389.039" x2="549.494" y2="388.893" />
    <line x1="549.494" y1="388.893" x2="546.161" y2="383.412" />
    <line x1="546.161" y1="383.412" x2="549.241" y2="377.784" />
    <line x1="549.241" y1="377.784" x2="555.655" y2="377.638" />
    <line x1="555.655" y1="377.638" x2="558.988" y2="383.120" />
    <line x1="558.988" y1="383.120" x2="562.069" y2="377.492" />
    <line x1="562.069" y1="377.492" x2="568.483" y2="377.346" />
    <line x1="568.483" y1="377.346" x2="565.149" y2="371.865" />
    <line x1="565.149" y1="371.865" x2="568.230" y2="366.237" />
    <line x1="568.230" y1="366.237" x2="561.816" y2="366.383" />
    <line x1="561.816" y1="366.383" x2="558.483" y2="360.902" />
    <line x1="558.483" y1="360.902" x2="561.563" y2="355.274" />
    <line x1="561.563" y1="355.274" x2="567.977" y2="355.128" />
    <line x1="567.977" y1="355.128" x2="564.643" y2="349.647" />
    <line x1="564.643" y1="349.647" x2="567.724" y2="344.019" />
    <line x1="567.724" y1="344.019" x2="561.310" y2="344.165" />
    <line x1="561.310" y1="344.165" x2="557.977" y2="338.684" />
    <line x1="557.977" y1="338.684" x2="554.896" y2="344.311" />
    <line x1="554.896" y1="344.311" x2="548.483" y2="344.457" />
    <line x1="548.483" y1="344.457" x2="545.149" y2="338.976" />
    <line x1="545.149" y1="338.976" x2="548.230" y2="333.348" />
    <line x1="548.230" y1="333.348" x2="541.816" y2="333.494" />
    <line x1="541.816" y1="333.494" x2="538.483" y2="328.013" />
    <line x1="538.483" y1="328.013" x2="535.402" y2="333.640" />
    <line x1="535.402" y1="333.640" x2="528.988" y2="333.786" />
    <line x1="528.988" y1="333.786" x2="532.322" y2="339.268" />
    <line x1="532.322" y1="339.268" x2="529.241" y2="344.895" />
    <line x1="529.241" y1="344.895" x2="522.828" y2="345.041" />
    <line x1="522.828" y1="345.041" x2="519.494" y2="339.560" />
    <line x1="519.494" y1="339.560" x2="516.414" y2="345.187" />
    <line x1="516.414" y1="345.187" x2="510.000" y2="345.333" />
    <line x1="510.000" y1="345.333" x2="506.667" y2="339.852" />
    <line x1="506.667" y1="339.852" x2="509.747" y2="334.224" />
    <line x1="509.747" y1="334.224" x2="503.333" y2="334.370" />
    <line x1="503.333" y1="334.370" x2="500.000" y2="328.889" />
    <line x1="500.000" y1="328.889" x2="503.080" y2="323.261" />
    <line x1="503.080" y1="323.261" x2="509.494" y2="323.115" />
    <line x1="509.494" y1="323.115" x2="506.161" y2="317.634" />
    <line x1="506.161" y1="317.634" x2="509.241" y2="312.006" />
    <line x1="509.241" y1="312.006" x2="502.828" y2="312.152" />
    <line x1="502.828" y1="312.152" x2="499.494" y2="306.671" />
    <line x1="499.494" y1="306.671" x2="496.414" y2="312.298" />
    <line x1="496.414" y1="312.298" x2="490.000" y2="312.444" />
    <line x1="490.000" y1="312.444" x2="486.667" y2="306.963" />
    <line x1="486.667" y1="306.963" x2="489.747" y2="301.335" />
    <line x1="489.747" y1="301.335" x2="483.333" y2="301.481" />
    <line x1="483.333" y1="301.481" x2="480.000" y2="296.000" />
    <line x1="480.000" y1="296.000" x2="483.080" y2="290.373" />
    <line x1="483.080" y1="290.373" x2="489.494" y2="290.226" />
    <line x1="489.494" y1="290.226" x2="486.161" y2="284.745" />
    <line x1="486.161" y1="284.745" x2="489.241" y2="279.118" />
    <line x1="489.241" y1="279.118" x2="495.655" y2="278.972" />
    <line x1="495.655" y1="278.972" x2="498.988" y2="284.453" />
    <line x1="498.988" y1="284.453" x2="502.069" y2="278.826" />
    <line x1="502.069" y1="278.826" x2="508.483" y2="278.679" />
    <line x1="508.483" y1="278.679" x2="505.149" y2="273.198" />
    <line x1="505.149" y1="273.198" x2="508.230" y2="267.571" />
    <line x1="508.230" y1="267.571" x2="501.816" y2="267.717" />
    <line x1="501.816" y1="267.717" x2="498.483" y2="262.235" />
    <line x1="498.483" y1="262.235" x2="501.563" y2="256.608" />
    <line x1="501.563" y1="256.608" x2="507.977" y2="256.462" />
    <line x1="507.977" y1="256.462" x2="504.643" y2="250.980" />
    <line x1="504.643" y1="250.980" x2="507.724" y2="245.353" />
    <line x1="507.724" y1="245.353" x2="514.138" y2="245.207" />
    <line x1="514.138" y1="245.207" x2="517.471" y2="250.688" />
    <line x1="517.471" y1="250.688" x2="520.551" y2="245.061" />
    <line x1="520.551" y1="245.061" x2="526.965" y2="244.915" />
    <line x1="526.965" y1="244.915" x2="530.299" y2="250.396" />
    <line x1="530.299" y1="250.396" x2="527.218" y2="256.024" />
    <line x1="527.218" y1="256.024" x2="533.632" y2="255.878" />
    <line x1="533.632" y1="255.878" x2="536.965" y2="261.359" />
    <line x1="536.965" y1="261.359" x2="540.046" y2="255.731" />
    <line x1="540.046" y1="255.731" x2="546.459" y2="255.585" />
    <line x1="546.459" y1="255.585" x2="543.126" y2="250.104" />
    <line x1="543.126" y1="250.104" x2="546.207" y2="244.477" />
    <line x1="546.207" y1="244.477" x2="552.620" y2="244.330" />
    <line x1="552.620" y1="244.330" x2="555.954" y2="249.812" />
    <line x1="555.954" y1="249.812" x2="559.034" y2="244.184" />
    <line x1="559.034" y1="244.184" x2="565.448" y2="244.038" />
    <line x1="565.448" y1="244.038" x2="562.115" y2="238.557" />
    <line x1="562.115" y1="238.557" x2="565.195" y2="232.930" />
    <line x1="565.195" y1="232.930" x2="558.781" y2="233.076" />
    <line x1="558.781" y1="233.076" x2="555.448" y2="227.594" />
    <line x1="555.448" y1="227.594" x2="558.528" y2="221.967" />
    <line x1="558.528" y1="221.967" x2="564.942" y2="221.821" />
    <line x1="564.942" y1="221.821" x2="561.609" y2="216.339" />
    <line x1="561.609" y1="216.339" x2="564.689" y2="210.712" />
    <line x1="564.689" y1="210.712" x2="558.275" y2="210.858" />
    <line x1="558.275" y1="210.858" x2="554.942" y2="205.376" />
    <line x1="554.942" y1="205.376" x2="551.862" y2="211.004" />
    <line x1="551.862" y1="211.004" x2="545.448" y2="211.150" />
    <line x1="545.448" y1="211.150" x2="542.115" y2="205.668" />
    <line x1="542.115" y1="205.668" x2="545.195" y2="200.041" />
    <line x1="545.195" y1="200.041" x2="538.781" y2="200.187" />
    <line x1="538.781" y1="200.187" x2="535.448" y2="194.705" />
    <line x1="535.448" y1="194.705" x2="538.528" y2="189.078" />
    <line x1="538.528" y1="189.078" x2="544.942" y2="188.932" />
    <line x1="544.942" y1="188.932" x2="541.609" y2="183.450" />
    <line x1="541.609" y1="183.450" x2="544.689" y2="177.823" />
    <line x1="544.689" y1="177.823" x2="551.103" y2="177.677" />
    <line x1="551.103" y1="177.677" x2="554.436" y2="183.158" />
    <line x1="554.436" y1="183.158" x2="557.517" y2="177.531" />
    <line x1="557.517" y1="177.531" x2="563.930" y2="177.385" />
    <line x1="563.930" y1="177.385" x2="560.597" y2="171.903" />
    <line x1="560.597" y1="171.903" x2="563.678" y2="166.276" />
    <line x1="563.678" y1="166.276" x2="557.264" y2="166.422" />
    <line x1="557.264" y1="166.422" x2="553.930" y2="160.940" />
    <line x1="553.930" y1="160.940" x2="557.011" y2="155.313" />
    <line x1="557.011" y1="155.313" x2="563.425" y2="155.167" />
    <line x1="563.425" y1="155.167" x2="560.091" y2="149.685" />
    <line x1="560.091" y1="149.685" x2="563.172" y2="144.058" />
    <line x1="563.172" y1="144.058" x2="556.758" y2="144.204" />
    <line x1="556.758" y1="144.204" x2="553.425" y2="138.722" />
    <line x1="553.425" y1="138.722" x2="550.344" y2="144.350" />
    <line x1="550.344" y1="144.350" x2="543.930" y2="144.496" />
    <line x1="543.930" y1="144.496" x2="540.597" y2="139.014" />
    <line x1="540.597" y1="139.014" x2="543.678" y2="133.387" />
    <line x1="543.678" y1="133.387" x2="537.264" y2="133.533" />
    <line x1="537.264" y1="133.533" x2="533.930" y2="128.051" />
    <line x1="533.930" y1="128.051" x2="530.850" y2="133.679" />
    <line x1="530.850" y1="133.679" x2="524.436" y2="133.825" />
    <line x1="524.436" y1="133.825" x2="527.770" y2="139.306" />
    <line x1="527.770" y1="139.306" x2="524.689" y2="144.934" />
    <line x1="524.689" y1="144.934" x2="518.275" y2="145.080" />
    <line x1="518.275" y1="145.080" x2="514.942" y2="139.598" />
    <line x1="514.942" y1="139.598" x2="511.862" y2="145.226" />
    <line x1="511.862" y1="145.226" x2="505.448" y2="145.372" />
    <line x1="505.448" y1="145.372" x2="502.115" y2="139.890" />
    <line x1="502.115" y1="139.890" x2="505.195" y2="134.263" />
    <line x1="505.195" y1="134.263" x2="498.781" y2="134.409" />
    <line x1="498.781" y1="134.409" x2="495.448" y2="128.927" />
    <line x1="495.448" y1="128.927" x2="498.528" y2="123.300" />
    <line x1="498.528" y1="123.300" x2="504.942" y2="123.154" />
    <line x1="504.942" y1="123.154" x2="501.609" y2="117.672" />
    <line x1="501.609" y1="117.672" x2="504.689" y2="112.045" />
    <line x1="504.689" y1="112.045" x2="498.275" y2="112.191" />
    <line x1="498.275" y1="112.191" x2="494.942" y2="106.709" />
    <line x1="494.942" y1="106.709" x2="491.862" y2="112.337" />
    <line x1="491.862" y1="112.337" x2="485.448" y2="112.483" />
    <line x1="485.448" y1="112.483" x2="482.115" y2="107.001" />
    <line x1="482.115" y1="107.001" x2="485.195" y2="101.374" />
    <line x1="485.195" y1="101.374" x2="478.781" y2="101.520" />
    <line x1="478.781" y1="101.520" x2="475.448" y2="96.038" />
    <line x1="475.448" y1="96.038" x2="472.367" y2="101.666" />
    <line x1="472.367" y1="101.666" x2="465.954" y2="101.812" />
    <line x1="465.954" y1="101.812" x2="469.287" y2="107.293" />
    <line x1="469.287" y1="107.293" x2="466.207" y2="112.921" />
    <line x1="466.207" y1="112.921" x2="459.793" y2="113.067" />
    <line x1="459.793" y1="113.067" x2="456.459" y2="107.585" />
    <line x1="456.459" y1="107.585" x2="453.379" y2="113.213" />
    <line x1="453.379" y1="113.213" x2="446.965" y2="113.359" />
    <line x1="446.965" y1="113.359" x2="450.299" y2="118.840" />
    <line x1="450.299" y1="118.840" x2="447.218" y2="124.468" />
    <line x1="447.218" y1="124.468" x2="453.632" y2="124.322" />
    <line x1="453.632" y1="124.322" x2="456.965" y2="129.803" />
    <line x1="456.965" y1="129.803" x2="453.885" y2="135.431" />
    <line x1="453.885" y1="135.431" x2="447.471" y2="135.577" />
    <line x1="447.471" y1="135.577" x2="450.804" y2="141.058" />
    <line x1="450.804" y1="141.058" x2="447.724" y2="146.686" />
    <line x1="447.724" y1="146.686" x2="441.310" y2="146.832" />
    <line x1="441.310" y1="146.832" x2="437.977" y2="141.350" />
    <line x1="437.977" y1="141.350" x2="434.896" y2="146.978" />
    <line x1="434.896" y1="146.978" x2="428.483" y2="147.124" />
    <line x1="428.483" y1="147.124" x2="425.149" y2="141.642" />
    <line x1="425.149" y1="141.642" x2="428.230" y2="136.015" />
    <line x1="428.230" y1="136.015" x2="421.816" y2="136.161" />
    <line x1="421.816" y1="136.161" x2="418.483" y2="130.679" />
    <line x1="418.483" y1="130.679" x2="415.402" y2="136.307" />
    <line x1="415.402" y1="136.307" x2="408.988" y2="136.453" />
    <line x1="408.988" y1="136.453" x2="412.322" y2="141.934" />
    <line x1="412.322" y1="141.934" x2="409.241" y2="147.562" />
    <line x1="409.241" y1="147.562" x2="402.828" y2="147.708" />
    <line x1="402.828" y1="147.708" x2="399.494" y2="142.226" />
    <line x1="399.494" y1="142.226" x2="396.414" y2="147.854" />
    <line x1="396.414" y1="147.854" x2="390.000" y2="148.000" />
    <line x1="390.000" y1="148.000" x2="386.667" y2="142.519" />
    <line x1="386.667" y1="142.519" x2="389.747" y2="136.891" />
    <line x1="389.747" y1="136.891" x2="383.333" y2="137.037" />
    <line x1="383.333" y1="137.037" x2="380.000" y2="131.556" />
    <line x1="380.000" y1="131.556" x2="383.080" y2="125.928" />
    <line x1="383.080" y1="125.928" x2="389.494" y2="125.782" />
    <line x1="389.494" y1="125.782" x2="386.161" y2="120.301" />
    <line x1="386.161" y1="120.301" x2="389.241" y2="114.673" />
    <line x1="389.241" y1="114.673" x2="382.828" y2="114.819" />
    <line x1="382.828" y1="114.819" x2="379.494" y2="109.338" />
    <line x1="379.494" y1="109.338" x2="376.414" y2="114.965" />
    <line x1="376.414" y1="114.965" x2="370.000" y2="115.111" />
    <line x1="370.000" y1="115.111" x2="366.667" y2="109.630" />
    <line x1="366.667" y1="109.630" x2="369.747" y2="104.002" />
    <line x1="369.747" y1="104.002" x2="363.333" y2="104.148" />
    <line x1="363.333" y1="104.148" x2="360.000" y2="98.667" />
    <line x1="360.000" y1="98.667" x2="363.080" y2="93.039" />
    <line x1="363.080" y1="93.039" x2="369.494" y2="92.893" />
    <line x1="369.494" y1="92.893" x2="366.161" y2="87.412" />
    <line x1="366.161" y1="87.412" x2="369.241" y2="81.784" />
    <line x1="369.241" y1="81.784" x2="375.655" y2="81.638" />
    <line x1="375.655" y1="81.638" x2="378.988" y2="87.120" />
    <line x1="378.988" y1="87.120" x2="382.069" y2="81.492" />
    <line x1="382.069" y1="81.492" x2="388.483" y2="81.346" />
    <line x1="388.483" y1="81.346" x2="385.149" y2="75.865" />
    <line x1="385.149" y1="75.865" x2="388.230" y2="70.237" />
    <line x1="388.230" y1="70.237" x2="381.816" y2="70.383" />
    <line x1="381.816" y1="70.383" x2="378.483" y2="64.902" />
    <line x1="378.483" y1="64.902" x2="381.563" y2="59.274" />
    <line x1="381.563" y1="59.274" x2="387.977" y2="59.128" />
    <line x1="387.977" y1="59.128" x2="384.643" y2="53.647" />
    <line x1="384.643" y1="53.647" x2="387.724" y2="48.019" />
    <line x1="387.724" y1="48.019" x2="381.310" y2="48.165" />
    <line x1="381.310" y1="48.165" x2="377.977" y2="42.684" />
    <line x1="377.977" y1="42.684" x2="374.896" y2="48.311" />
    <line x1="374.896" y1="48.311" x2="368.483" y2="48.457" />
    <line x1="368.483" y1="48.457" x2="365.149" y2="42.976" />
    <line x1="365.149" y1="42.976" x2="368.230" y2="37.348" />
    <line x1="368.230" y1="37.348" x2="361.816" y2="37.494" />
    <line x1="361.816" y1="37.494" x2="358.483" y2="32.013" />
    <line x1="358.483" y1="32.013" x2="355.402" y2="37.640" />
    <line x1="355.402" y1="37.640" x2="348.988" y2="37.786" />
    <line x1="348.988" y1="37.786" x2="352.322" y2="43.268" />
    <line x1="352.322" y1="43.268" x2="349.241" y2="48.895" />
    <line x1="349.241" y1="48.895" x2="342.828" y2="49.041" />
    <line x1="342.828" y1="49.041" x2="339.494" y2="43.560" />
    <line x1="339.494" y1="43.560" x2="336.414" y2="49.187" />
    <line x1="336.414" y1="49.187" x2="330.000" y2="49.333" />
    <line x1="330.000" y1="49.333" x2="326.667" y2="43.852" />
    <line x1="326.667" y1="43.852" x2="329.747" y2="38.224" />
    <line x1="329.747" y1="38.224" x2="323.333" y2="38.370" />
    <line x1="323.333" y1="38.370" x2="320.000" y2="32.889" />
    <line x1="320.000" y1="32.889" x2="323.080" y2="27.261" />
    <line x1="323.080" y1="27.261" x2="329.494" y2="27.115" />
    <line x1="329.494" y1="27.115" x2="326.161" y2="21.634" />
    <line x1="326.161" y1="21.634" x2="329.241" y2="16.006" />
    <line x1="329.241" y1="16.006" x2="322.828" y2="16.152" />
    <line x1="322.828" y1="16.152" x2="319.494" y2="10.671" />
    <line x1="319.494" y1="10.671" x2="316.414" y2="16.298" />
    <line x1="316.414" y1="16.298" x2="310.000" y2="16.444" />
    <line x1="310.000" y1="16.444" x2="306.667" y2="10.963" />
    <line x1="306.667" y1="10.963" x2="309.747" y2="5.335" />
    <line x1="309.747" y1="5.335" x2="303.333" y2="5.481" />
    <line x1="303.333" y1="5.481" x2="300.000" y2="0.000" />
  </g>
</svg>
